<svg xmlns="http://www.w3.org/2000/svg" viewBox="0 0 470 272" font-family="'Hiragino Sans','Noto Sans JP','Yu Gothic UI',Meiryo,sans-serif">
<defs>
<marker id="mI" viewBox="0 0 8 8" refX="7" refY="4" markerWidth="5.5" markerHeight="5.5" orient="auto"><path d="M0,0L8,4L0,8z" fill="#2A3242"/></marker>
<marker id="mT" viewBox="0 0 8 8" refX="7" refY="4" markerWidth="5.5" markerHeight="5.5" orient="auto"><path d="M0,0L8,4L0,8z" fill="#0E9490"/></marker>
<marker id="mR" viewBox="0 0 8 8" refX="7" refY="4" markerWidth="5.5" markerHeight="5.5" orient="auto"><path d="M0,0L8,4L0,8z" fill="#D64848"/></marker>
<marker id="mG" viewBox="0 0 8 8" refX="7" refY="4" markerWidth="6" markerHeight="6" orient="auto"><path d="M0,0L8,4L0,8z" fill="#3E9C5C"/></marker></defs>
<rect x="0" y="0" width="470" height="272" rx="10" fill="#FBFCFD"/>
<text x="28" y="25" font-size="12.5" font-weight="700" fill="#2A3242">『敵などいない』自機狙いの扇 3way×13°・98px/s・Di×0.7秒</text>
<clipPath id="c2"><rect x="28" y="34" width="384" height="216"/></clipPath>
<rect x="28" y="34" width="384" height="216" fill="#F1F4F7" stroke="#C4CDD8"/>
<g clip-path="url(#c2)"><line x1="217.4" y1="109.7" x2="122.2" y2="160.7" stroke="#D64848" stroke-width="1.6" opacity="1" marker-end="url(#mR)"/><line x1="216.4" y1="107.1" x2="112.2" y2="135.4" stroke="#D64848" stroke-width="1.6" opacity="1" marker-end="url(#mR)"/><line x1="216" y1="104.5" x2="108.1" y2="108.6" stroke="#D64848" stroke-width="1.6" opacity="1" marker-end="url(#mR)"/><line x1="219" y1="111.9" x2="148.2" y2="173.8" stroke="#D64848" stroke-width="1.2" opacity="0.75" stroke-dasharray="4 3" marker-end="url(#mR)"/><line x1="216.2" y1="101.7" x2="123.9" y2="84.1" stroke="#D64848" stroke-width="1.2" opacity="0.75" stroke-dasharray="4 3" marker-end="url(#mR)"/><text x="106.2" y="80.7" font-size="10.5" fill="#D64848" text-anchor="end">圧+1で5way</text><line x1="221" y1="113.7" x2="166" y2="190" stroke="#D64848" stroke-width="1.2" opacity="0.75" stroke-dasharray="4 3" marker-end="url(#mR)"/><line x1="217" y1="99.2" x2="131" y2="61.2" stroke="#D64848" stroke-width="1.2" opacity="0.75" stroke-dasharray="4 3" marker-end="url(#mR)"/><text x="114.6" y="53.9" font-size="10.5" fill="#D64848" text-anchor="end">圧+2で7way</text><line x1="85.4" y1="132.3" x2="79.6" y2="111.1" stroke="#3E9C5C" stroke-width="1.8" opacity="1" marker-end="url(#mG)"/><text x="32" y="176" font-size="10.5" fill="#3E9C5C" text-anchor="start">正面に留まらず横へ</text><text x="32" y="244" font-size="10.5" fill="#6B7688" text-anchor="start">点線＝攻めない時間が続いたときの追加way（角度13°は不変）</text></g>
<circle cx="228" cy="104" r="5" fill="#0E9490"/><circle cx="228" cy="104" r="1.6" fill="#fff"/><text x="228" y="95" font-size="10.5" fill="#0E9490" font-weight="700" text-anchor="middle">ボス</text><path d="M94,142 L83,137 L83,147 z" fill="#fff" stroke="#0E9490" stroke-width="1.6"/><text x="88" y="158" font-size="10.5" fill="#0E9490" font-weight="700" text-anchor="middle">自機</text>
</svg>
